<svg viewBox="0 0 32 32" xml:space="preserve" xmlns="http://www.w3.org/2000/svg"><g fill="#19e8c9" class="fill-263238"><path d="M15.5 30h-11A2.503 2.503 0 0 1 2 27.5V8a.5.5 0 0 1 1 0v19.5c0 .827.673 1.5 1.5 1.5h11a.5.5 0 0 1 0 1zM27.5 30h-6a.5.5 0 0 1-.5-.5v-10a.5.5 0 0 1 .5-.5h3.059l.375-3H21.5a.5.5 0 0 1-.5-.5v-4c0-.827.673-1.5 1.5-1.5H25V7h-3.5C19.57 7 18 8.57 18 10.5v5a.5.5 0 0 1-.5.5H14v3h3.5a.5.5 0 0 1 .5.5v10a.5.5 0 0 1-1 0V20h-3.5a.5.5 0 0 1-.5-.5v-4a.5.5 0 0 1 .5-.5H17v-4.5C17 8.019 19.019 6 21.5 6h4a.5.5 0 0 1 .5.5v4a.5.5 0 0 1-.5.5h-3a.5.5 0 0 0-.5.5V15h3.5a.501.501 0 0 1 .496.563l-.5 4A.5.5 0 0 1 25 20h-3v9h5.5c.827 0 1.5-.673 1.5-1.5v-23c0-.827-.673-1.5-1.5-1.5h-23C3.673 3 3 3.673 3 4.5v1a.5.5 0 0 1-1 0v-1C2 3.121 3.122 2 4.5 2h23C28.878 2 30 3.121 30 4.5v23c0 1.379-1.122 2.5-2.5 2.5z"></path></g></svg>