<svg viewBox="0 0 32 32" xml:space="preserve" xmlns="http://www.w3.org/2000/svg"><g fill="#19e8c9" class="fill-263238"><path d="M4.983 8.875H4.94C2.657 8.875 1 7.361 1 5.275c0-2.089 1.692-3.606 4.023-3.606 2.292 0 3.928 1.476 3.977 3.589 0 2.101-1.689 3.617-4.017 3.617zm.04-6.206C3.243 2.669 2 3.741 2 5.275c0 1.531 1.209 2.601 2.94 2.601h.043C6.76 7.875 8 6.804 8 5.27c-.037-1.576-1.205-2.601-2.977-2.601zM7.5 29h-5a.5.5 0 0 1-.5-.5v-18a.5.5 0 0 1 .5-.5h5a.5.5 0 0 1 .5.5v18a.5.5 0 0 1-.5.5zM3 28h4V11H3v17zM30.5 29h-6a.5.5 0 0 1-.5-.5V19c0-1.654-1.346-3-3-3s-3 1.346-3 3v9.5a.5.5 0 0 1-.5.5h-6a.5.5 0 0 1-.5-.5v-18a.5.5 0 0 1 .5-.5h6a.5.5 0 0 1 .5.5v3.014a.5.5 0 0 1-1 0V11h-5v17h5v-9c0-2.206 1.794-4 4-4s4 1.794 4 4v9h5V17.5c0-3.584-2.916-6.5-6.5-6.5a6.949 6.949 0 0 0-3.871 1.173.5.5 0 0 1-.554-.831A7.934 7.934 0 0 1 23.5 10c4.136 0 7.5 3.364 7.5 7.5v11a.5.5 0 0 1-.5.5z"></path></g></svg>