<svg viewBox="0 0 128 128" xml:space="preserve" xmlns="http://www.w3.org/2000/svg" fill-rule="evenodd" clip-rule="evenodd" stroke-linejoin="round" stroke-miterlimit="1.41421"><path d="M.176.917h128v128h-128z" fill="none"></path><path d="M112.846 63.032c1.162.505 1.249.708 1.33 1.885 0 9.425.089 18.85-.002 28.274-.177 11.25-9.921 21.614-21.861 21.726-18.804.056-37.608.174-56.41-.002-11.232-.173-21.539-9.831-21.725-21.725a3116.487 3116.487 0 0 1 0-56.546c.177-11.289 9.962-21.615 21.861-21.727h28.137s1.312.184 1.776 1.08c.624 1.204-.335 2.821-1.776 2.92-9.408 0-18.816-.087-28.224.001-9.207.142-17.686 8.033-17.776 17.887-.056 18.778-.169 37.558.001 56.336.146 9.243 8.116 17.684 17.887 17.776 18.779.056 37.558.174 56.336-.001 9.213-.142 17.681-8.117 17.776-17.887V64.917s.533-2.483 2.67-1.885Zm-.93-48.115h.26l.113.004.03.001.005.001h.009a2.095 2.095 0 0 1 1.843 1.994v32c-.081 2.062-3.886 2.903-4 0V21.745L65.59 66.331c-1.718 1.562-2.656.39-3.122-.373-.465-.764-.316-1.785.294-2.455l44.586-44.587-27.329-.005c-1.477-.175-1.425-.586-1.691-1.229-.5-1.207.434-2.71 1.848-2.765h31.74Z" fill-rule="nonzero" fill="#19e8c9" class="fill-000000"></path></svg>