<svg viewBox="0 0 32 32" xml:space="preserve" xmlns="http://www.w3.org/2000/svg" enable-background="new 0 0 32 32"><path d="M2 14.354h10.854a1.5 1.5 0 0 0 1.5-1.5V2a1.5 1.5 0 0 0-1.5-1.5H2A1.5 1.5 0 0 0 .5 2v10.854a1.5 1.5 0 0 0 1.5 1.5zM3.5 3.5h7.854v7.854H3.5V3.5zM31.5 2A1.5 1.5 0 0 0 30 .5H19.146a1.5 1.5 0 0 0-1.5 1.5v10.854a1.5 1.5 0 0 0 1.5 1.5H30a1.5 1.5 0 0 0 1.5-1.5V2zm-3 9.354h-7.854V3.5H28.5v7.854zM2 31.5h10.854a1.5 1.5 0 0 0 1.5-1.5V19.146a1.5 1.5 0 0 0-1.5-1.5H2a1.5 1.5 0 0 0-1.5 1.5V30A1.5 1.5 0 0 0 2 31.5zm1.5-10.854h7.854V28.5H3.5v-7.854zM24.572 17.646c-3.82 0-6.926 3.107-6.926 6.927s3.107 6.927 6.926 6.927c3.82 0 6.928-3.107 6.928-6.927s-3.107-6.927-6.928-6.927zm0 10.854c-2.165 0-3.926-1.762-3.926-3.927s1.761-3.928 3.926-3.928c2.166 0 3.928 1.762 3.928 3.928S26.738 28.5 24.572 28.5z" fill="#19e8c9" class="fill-000000"></path></svg>