<svg viewBox="0 0 32 32" xml:space="preserve" xmlns="http://www.w3.org/2000/svg"><g fill="#19e8c9" class="fill-263238"><path d="M10.621 28.767c-3.334 0-6.583-.974-9.395-2.817a.5.5 0 0 1 .334-.914c.441.054.899.081 1.36.081 1.806 0 3.534-.417 5.136-1.24.316-.162.626-.34.927-.532-2.192-.509-4.004-2.166-4.709-4.417a.498.498 0 0 1 .328-.626.498.498 0 0 1 .626.328c.713 2.278 2.759 3.836 5.09 3.878a.5.5 0 0 1 .304.889c-.656.527-1.366.988-2.109 1.37a12.108 12.108 0 0 1-5.01 1.337 16.046 16.046 0 0 0 7.118 1.665c10.283 0 16.427-8.559 16.427-16.833 0-.258-.005-.517-.014-.771a.5.5 0 0 1 .203-.421 11.635 11.635 0 0 0 2.845-3.023.499.499 0 1 1 .837.545 12.618 12.618 0 0 1-2.878 3.124c.004.181.007.364.007.546 0 8.763-6.518 17.831-17.427 17.831z"></path><path d="M7.44 19.171a.501.501 0 0 1-.101-.01c-2.998-.614-5.174-3.333-5.174-6.463 0-.276.224-.538.5-.538s.5.186.5.462v.075c0 2.658 1.84 4.964 4.375 5.483.271.055.445.32.389.59a.499.499 0 0 1-.489.401zM5.361 13.882a.498.498 0 0 1-.282-.087 6.629 6.629 0 0 1-2.865-5.483c0-1.163.301-2.309.87-3.313a.499.499 0 0 1 .826-.065c2.936 3.689 7.273 5.941 11.899 6.179.275.014.488.25.474.525a.512.512 0 0 1-.525.474c-4.653-.24-9.03-2.397-12.126-5.951a5.75 5.75 0 0 0-.417 2.15 5.63 5.63 0 0 0 2.429 4.658.5.5 0 0 1-.283.913zM15.646 10.281l-.036-.001a.499.499 0 0 1-.463-.534c.242-3.427 3.066-6.112 6.43-6.112 1.687 0 3.314.68 4.511 1.876a11.254 11.254 0 0 0 3.353-1.357.5.5 0 0 1 .736.576 6.565 6.565 0 0 1-2.832 3.646.501.501 0 0 1-.523-.853A5.55 5.55 0 0 0 28.645 5.7c-.843.381-1.722.665-2.628.846a.498.498 0 0 1-.467-.153 5.398 5.398 0 0 0-3.973-1.76c-2.841 0-5.228 2.276-5.433 5.182a.499.499 0 0 1-.498.466z"></path></g></svg>